<svg xmlns="http://www.w3.org/2000/svg" width="1400" height="760" viewBox="0 0 1400 760" fill="none">
    <defs>
      <style>
        .title { font: 600 24px "Cormorant Garamond", Georgia, serif; fill: #993C1D; }
        .subtitle { font: 500 14px "Cormorant Garamond", Georgia, serif; fill: #6B5D4F; }
        .label { font: 500 14px "Cormorant Garamond", Georgia, serif; fill: #2C2418; }
        .small { font: 500 12px "Cormorant Garamond", Georgia, serif; fill: #6B5D4F; }
        .tiny { font: 500 11px "Cormorant Garamond", Georgia, serif; fill: #9A8E7F; }
        .mono { font: 500 12px "SF Mono","Fira Code",monospace; fill: #2C2418; }
        .monoSmall { font: 500 11px "SF Mono","Fira Code",monospace; fill: #6B5D4F; }
        .dev { font: 500 16px "Noto Sans Devanagari","Devanagari Sangam MN",serif; fill: #2C2418; }
      </style>
      
    </defs>
    <rect width="1400" height="760" rx="22" fill="#FDF8F0"/><text x="70" y="42" class="title">The mountain inside the name</text><text x="70" y="64" class="subtitle">Layered by number of cuts. The traditional reading stands at the summit, not at the margins.</text><line x1="120" y1="660" x2="1280" y2="660" stroke="#9A8E7F" stroke-width="1.5"/><line x1="120" y1="660" x2="120" y2="190" stroke="#9A8E7F" stroke-width="1.5"/><polyline points="120.0,659.9269619269619 197.33333333333331,658.9044289044289 274.66666666666663,652.3310023310023 352.0,626.7676767676768 429.3333333333333,560.3030303030303 506.66666666666663,440.66666666666663 584.0,294.44444444444446 661.3333333333333,190.0 738.6666666666666,190.0 816.0,294.44444444444446 893.3333333333333,440.66666666666663 970.6666666666666,560.3030303030303 1048.0,626.7676767676768 1125.3333333333333,652.3310023310023 1202.6666666666665,658.9044289044289 1280.0,659.9269619269619" fill="none" stroke="#633806" stroke-width="6" stroke-linejoin="round" stroke-linecap="round"/><polygon points="120,660 120.0,659.9269619269619 197.33333333333331,658.9044289044289 274.66666666666663,652.3310023310023 352.0,626.7676767676768 429.3333333333333,560.3030303030303 506.66666666666663,440.66666666666663 584.0,294.44444444444446 661.3333333333333,190.0 738.6666666666666,190.0 816.0,294.44444444444446 893.3333333333333,440.66666666666663 970.6666666666666,560.3030303030303 1048.0,626.7676767676768 1125.3333333333333,652.3310023310023 1202.6666666666665,658.9044289044289 1280.0,659.9269619269619 1280,660" fill="#FAEEDA" opacity="0.75"/><circle cx="120.0" cy="659.9269619269619" r="5" fill="#633806"/><text x="120.0" y="688" text-anchor="middle" class="small">0</text><text x="120.0" y="647.9269619269619" text-anchor="middle" class="tiny">1</text><circle cx="197.33333333333331" cy="658.9044289044289" r="5" fill="#633806"/><text x="197.33333333333331" y="688" text-anchor="middle" class="small">1</text><text x="197.33333333333331" y="646.9044289044289" text-anchor="middle" class="tiny">15</text><circle cx="274.66666666666663" cy="652.3310023310023" r="5" fill="#633806"/><text x="274.66666666666663" y="688" text-anchor="middle" class="small">2</text><text x="274.66666666666663" y="640.3310023310023" text-anchor="middle" class="tiny">105</text><circle cx="352.0" cy="626.7676767676768" r="5" fill="#633806"/><text x="352.0" y="688" text-anchor="middle" class="small">3</text><text x="352.0" y="614.7676767676768" text-anchor="middle" class="tiny">455</text><circle cx="429.3333333333333" cy="560.3030303030303" r="5" fill="#633806"/><text x="429.3333333333333" y="688" text-anchor="middle" class="small">4</text><text x="429.3333333333333" y="548.3030303030303" text-anchor="middle" class="tiny">1,365</text><circle cx="506.66666666666663" cy="440.66666666666663" r="5" fill="#633806"/><text x="506.66666666666663" y="688" text-anchor="middle" class="small">5</text><text x="506.66666666666663" y="428.66666666666663" text-anchor="middle" class="tiny">3,003</text><circle cx="584.0" cy="294.44444444444446" r="5" fill="#633806"/><text x="584.0" y="688" text-anchor="middle" class="small">6</text><text x="584.0" y="282.44444444444446" text-anchor="middle" class="tiny">5,005</text><circle cx="661.3333333333333" cy="190.0" r="8" fill="#D85A30"/><text x="661.3333333333333" y="688" text-anchor="middle" class="small">7</text><text x="661.3333333333333" y="178.0" text-anchor="middle" class="tiny">6,435</text><circle cx="738.6666666666666" cy="190.0" r="8" fill="#D85A30"/><text x="738.6666666666666" y="688" text-anchor="middle" class="small">8</text><text x="738.6666666666666" y="178.0" text-anchor="middle" class="tiny">6,435</text><circle cx="816.0" cy="294.44444444444446" r="5" fill="#633806"/><text x="816.0" y="688" text-anchor="middle" class="small">9</text><text x="816.0" y="282.44444444444446" text-anchor="middle" class="tiny">5,005</text><circle cx="893.3333333333333" cy="440.66666666666663" r="5" fill="#633806"/><text x="893.3333333333333" y="688" text-anchor="middle" class="small">10</text><text x="893.3333333333333" y="428.66666666666663" text-anchor="middle" class="tiny">3,003</text><circle cx="970.6666666666666" cy="560.3030303030303" r="5" fill="#633806"/><text x="970.6666666666666" y="688" text-anchor="middle" class="small">11</text><text x="970.6666666666666" y="548.3030303030303" text-anchor="middle" class="tiny">1,365</text><circle cx="1048.0" cy="626.7676767676768" r="5" fill="#633806"/><text x="1048.0" y="688" text-anchor="middle" class="small">12</text><text x="1048.0" y="614.7676767676768" text-anchor="middle" class="tiny">455</text><circle cx="1125.3333333333333" cy="652.3310023310023" r="5" fill="#633806"/><text x="1125.3333333333333" y="688" text-anchor="middle" class="small">13</text><text x="1125.3333333333333" y="640.3310023310023" text-anchor="middle" class="tiny">105</text><circle cx="1202.6666666666665" cy="658.9044289044289" r="5" fill="#633806"/><text x="1202.6666666666665" y="688" text-anchor="middle" class="small">14</text><text x="1202.6666666666665" y="646.9044289044289" text-anchor="middle" class="tiny">15</text><circle cx="1280.0" cy="659.9269619269619" r="5" fill="#633806"/><text x="1280.0" y="688" text-anchor="middle" class="small">15</text><text x="1280.0" y="647.9269619269619" text-anchor="middle" class="tiny">1</text><line x1="661.3333333333333" y1="660" x2="661.3333333333333" y2="172.0" stroke="#D85A30" stroke-dasharray="5 6" stroke-width="2"/><line x1="738.6666666666666" y1="660" x2="738.6666666666666" y2="172.0" stroke="#D85A30" stroke-dasharray="5 6" stroke-width="2"/><rect x="520" y="140" width="360" height="72" rx="16" fill="#FFFFFF" stroke="#D85A30" stroke-width="2"/><text x="700" y="170" text-anchor="middle" class="label">Twin peak: layers 7 and 8</text><text x="700" y="196" text-anchor="middle" class="small">6,435 segmentations at each summit layer</text><circle cx="738.6666666666666" cy="190.0" r="16" fill="#534AB7" fill-opacity="0.18" stroke="#3C3489" stroke-width="2.5"/><text x="776.6666666666666" y="146.0" class="label">traditional chant parse</text><text x="776.6666666666666" y="168.0" class="small">rāma │ rāme │ ti │ rāme │ ti │ rame │ rāme │ mano │ rame</text><path d="M766.6666666666666,162.0 C746.6666666666666,172.0 742.6666666666666,180.0 738.6666666666666,188.0" stroke="#3C3489" stroke-width="2" fill="none"/><text x="150" y="118" class="small">unity</text><text x="1150" y="118" class="small">maximal fragmentation</text><text x="75" y="430" transform="rotate(-90,75,430)" class="small">number of segmentations</text><text x="700.0" y="714" text-anchor="middle" class="small">cut depth (k)</text>
    </svg>