<svg xmlns="http://www.w3.org/2000/svg" width="1300" height="560" viewBox="0 0 1300 560" fill="none">
    <defs>
      <style>
        .title { font: 600 24px "Cormorant Garamond", Georgia, serif; fill: #993C1D; }
        .subtitle { font: 500 14px "Cormorant Garamond", Georgia, serif; fill: #6B5D4F; }
        .label { font: 500 14px "Cormorant Garamond", Georgia, serif; fill: #2C2418; }
        .small { font: 500 12px "Cormorant Garamond", Georgia, serif; fill: #6B5D4F; }
        .tiny { font: 500 11px "Cormorant Garamond", Georgia, serif; fill: #9A8E7F; }
        .mono { font: 500 12px "SF Mono","Fira Code",monospace; fill: #2C2418; }
        .monoSmall { font: 500 11px "SF Mono","Fira Code",monospace; fill: #6B5D4F; }
        .dev { font: 500 16px "Noto Sans Devanagari","Devanagari Sangam MN",serif; fill: #2C2418; }
      </style>
      
    </defs>
    <rect width="1300" height="560" rx="22" fill="#FDF8F0"/><text x="70" y="42" class="title">Layer 15: sixteen atoms, six unique syllables</text><text x="70" y="64" class="subtitle">Padma Purāṇa reaches maximal fragmentation without collapsing into phonemic rubble.</text><rect x="70" y="110" width="70" height="48" rx="10" fill="#FAEEDA" stroke="#E0D5C5"/><text x="105.0" y="141" text-anchor="middle" class="label">rā</text><rect x="146" y="110" width="70" height="48" rx="10" fill="#FAF6EE" stroke="#E0D5C5"/><text x="181.0" y="141" text-anchor="middle" class="label">ma</text><rect x="222" y="110" width="70" height="48" rx="10" fill="#FAEEDA" stroke="#E0D5C5"/><text x="257.0" y="141" text-anchor="middle" class="label">rā</text><rect x="298" y="110" width="70" height="48" rx="10" fill="#FAEEDA" stroke="#E0D5C5"/><text x="333.0" y="141" text-anchor="middle" class="label">me</text><rect x="374" y="110" width="70" height="48" rx="10" fill="#EEEDFE" stroke="#E0D5C5"/><text x="409.0" y="141" text-anchor="middle" class="label">ti</text><rect x="450" y="110" width="70" height="48" rx="10" fill="#FAEEDA" stroke="#E0D5C5"/><text x="485.0" y="141" text-anchor="middle" class="label">rā</text><rect x="526" y="110" width="70" height="48" rx="10" fill="#FAEEDA" stroke="#E0D5C5"/><text x="561.0" y="141" text-anchor="middle" class="label">me</text><rect x="602" y="110" width="70" height="48" rx="10" fill="#EEEDFE" stroke="#E0D5C5"/><text x="637.0" y="141" text-anchor="middle" class="label">ti</text><rect x="678" y="110" width="70" height="48" rx="10" fill="#FAF6EE" stroke="#E0D5C5"/><text x="713.0" y="141" text-anchor="middle" class="label">ra</text><rect x="754" y="110" width="70" height="48" rx="10" fill="#FAEEDA" stroke="#E0D5C5"/><text x="789.0" y="141" text-anchor="middle" class="label">me</text><rect x="830" y="110" width="70" height="48" rx="10" fill="#FAEEDA" stroke="#E0D5C5"/><text x="865.0" y="141" text-anchor="middle" class="label">rā</text><rect x="906" y="110" width="70" height="48" rx="10" fill="#FAEEDA" stroke="#E0D5C5"/><text x="941.0" y="141" text-anchor="middle" class="label">me</text><rect x="982" y="110" width="70" height="48" rx="10" fill="#FAF6EE" stroke="#E0D5C5"/><text x="1017.0" y="141" text-anchor="middle" class="label">ma</text><rect x="1058" y="110" width="70" height="48" rx="10" fill="#FAF6EE" stroke="#E0D5C5"/><text x="1093.0" y="141" text-anchor="middle" class="label">no</text><rect x="1134" y="110" width="70" height="48" rx="10" fill="#FAF6EE" stroke="#E0D5C5"/><text x="1169.0" y="141" text-anchor="middle" class="label">ra</text><rect x="1210" y="110" width="70" height="48" rx="10" fill="#FAEEDA" stroke="#E0D5C5"/><text x="1245.0" y="141" text-anchor="middle" class="label">me</text><line x1="70" y1="200" x2="1230" y2="200" stroke="#E0D5C5" stroke-width="1.5"/><rect x="120" y="290.0" width="110" height="180.0" rx="14" fill="#D85A30" fill-opacity="0.9"/><text x="175.0" y="498" text-anchor="middle" class="label">me</text><text x="175.0" y="280.0" text-anchor="middle" class="small">5</text><text x="175.0" y="518" text-anchor="middle" class="tiny">31%</text><rect x="290" y="326.0" width="110" height="144.0" rx="14" fill="#BA7517" fill-opacity="0.9"/><text x="345.0" y="498" text-anchor="middle" class="label">rā</text><text x="345.0" y="316.0" text-anchor="middle" class="small">4</text><text x="345.0" y="518" text-anchor="middle" class="tiny">25%</text><rect x="460" y="398.0" width="110" height="72.0" rx="14" fill="#534AB7" fill-opacity="0.7"/><text x="515.0" y="498" text-anchor="middle" class="label">ma</text><text x="515.0" y="388.0" text-anchor="middle" class="small">2</text><text x="515.0" y="518" text-anchor="middle" class="tiny">12%</text><rect x="630" y="398.0" width="110" height="72.0" rx="14" fill="#534AB7" fill-opacity="0.7"/><text x="685.0" y="498" text-anchor="middle" class="label">ti</text><text x="685.0" y="388.0" text-anchor="middle" class="small">2</text><text x="685.0" y="518" text-anchor="middle" class="tiny">12%</text><rect x="800" y="398.0" width="110" height="72.0" rx="14" fill="#534AB7" fill-opacity="0.7"/><text x="855.0" y="498" text-anchor="middle" class="label">ra</text><text x="855.0" y="388.0" text-anchor="middle" class="small">2</text><text x="855.0" y="518" text-anchor="middle" class="tiny">12%</text><rect x="970" y="434.0" width="110" height="36.0" rx="14" fill="#534AB7" fill-opacity="0.7"/><text x="1025.0" y="498" text-anchor="middle" class="label">no</text><text x="1025.0" y="424.0" text-anchor="middle" class="small">1</text><text x="1025.0" y="518" text-anchor="middle" class="tiny">6%</text><text x="1030" y="282" class="label">dominant loop</text><text x="1030" y="306" class="small">rā + me = 9 / 16 atoms = 56%</text><rect x="1010" y="330" width="180" height="82" rx="16" fill="#FFFFFF" stroke="#E0D5C5"/><text x="1100" y="360" text-anchor="middle" class="small">unique bījas</text><text x="1100" y="392" text-anchor="middle" class="title" style="font-size:32px">6</text><text x="1100" y="416" text-anchor="middle" class="tiny">rā, ma, me, ti, ra, no</text>
    </svg>