<svg xmlns="http://www.w3.org/2000/svg" width="1300" height="440" viewBox="0 0 1300 440" fill="none">
    <defs>
      <style>
        .title { font: 600 24px "Cormorant Garamond", Georgia, serif; fill: #993C1D; }
        .subtitle { font: 500 14px "Cormorant Garamond", Georgia, serif; fill: #6B5D4F; }
        .label { font: 500 14px "Cormorant Garamond", Georgia, serif; fill: #2C2418; }
        .small { font: 500 12px "Cormorant Garamond", Georgia, serif; fill: #6B5D4F; }
        .tiny { font: 500 11px "Cormorant Garamond", Georgia, serif; fill: #9A8E7F; }
        .mono { font: 500 12px "SF Mono","Fira Code",monospace; fill: #2C2418; }
        .monoSmall { font: 500 11px "SF Mono","Fira Code",monospace; fill: #6B5D4F; }
        .dev { font: 500 16px "Noto Sans Devanagari","Devanagari Sangam MN",serif; fill: #2C2418; }
      </style>
      
    </defs>
    <rect width="1300" height="440" rx="22" fill="#FDF8F0"/><text x="70" y="42" class="title">The breath-shape of the Padma reading</text><text x="70" y="64" class="subtitle">Expansion → sustained plateau → contraction → terminal opening</text><line x1="70" y1="300" x2="1030" y2="300" stroke="#9A8E7F" stroke-width="1.5"/><path d="M 100 228 C 185.0 228 185.0 192 270 192 C 355.0 192 355.0 192 440 192 C 525.0 192 525.0 228 610 228 C 695.0 228 695.0 228 780 228 C 865.0 228 865.0 156 950 156" stroke="#D85A30" stroke-width="5" fill="none"/><circle cx="100" cy="228" r="9" fill="#BA7517"/><text x="100" y="328" text-anchor="middle" class="label">rāma</text><text x="100" y="212" text-anchor="middle" class="small">4</text><line x1="100" y1="300" x2="100" y2="238" stroke="#E0D5C5" stroke-dasharray="4 5"/><circle cx="270" cy="192" r="9" fill="#534AB7"/><text x="270" y="328" text-anchor="middle" class="label">rāmeti</text><text x="270" y="176" text-anchor="middle" class="small">6</text><line x1="270" y1="300" x2="270" y2="202" stroke="#E0D5C5" stroke-dasharray="4 5"/><circle cx="440" cy="192" r="9" fill="#534AB7"/><text x="440" y="328" text-anchor="middle" class="label">rāmeti</text><text x="440" y="176" text-anchor="middle" class="small">6</text><line x1="440" y1="300" x2="440" y2="202" stroke="#E0D5C5" stroke-dasharray="4 5"/><circle cx="610" cy="228" r="9" fill="#BA7517"/><text x="610" y="328" text-anchor="middle" class="label">rame</text><text x="610" y="212" text-anchor="middle" class="small">4</text><line x1="610" y1="300" x2="610" y2="238" stroke="#E0D5C5" stroke-dasharray="4 5"/><circle cx="780" cy="228" r="9" fill="#BA7517"/><text x="780" y="328" text-anchor="middle" class="label">rāme</text><text x="780" y="212" text-anchor="middle" class="small">4</text><line x1="780" y1="300" x2="780" y2="238" stroke="#E0D5C5" stroke-dasharray="4 5"/><circle cx="950" cy="156" r="9" fill="#BA7517"/><text x="950" y="328" text-anchor="middle" class="label">manorame</text><text x="950" y="140" text-anchor="middle" class="small">8</text><line x1="950" y1="300" x2="950" y2="166" stroke="#E0D5C5" stroke-dasharray="4 5"/><text x="135" y="180" class="small">opening call</text><text x="355.0" y="140" text-anchor="middle" class="small">doubled invocative plateau</text><text x="795" y="180" class="small">contracted delight</text><text x="940" y="96" text-anchor="middle" class="label">terminal opening into manorame</text><path d="M950 106 C 950 121, 950 136, 950 148" stroke="#633806" stroke-width="2" fill="none"/>
    </svg>