<svg width="100%" viewBox="0 0 900 520" xmlns="http://www.w3.org/2000/svg">
<defs>
  <linearGradient id="bgGrad" x1="0" y1="0" x2="1" y2="1">
    <stop offset="0%" stop-color="#FFF7E8"/>
    <stop offset="100%" stop-color="#FDE8FF"/>
  </linearGradient>
  <linearGradient id="goldGrad" x1="0" y1="0" x2="1" y2="1">
    <stop offset="0%" stop-color="#FFE07A"/>
    <stop offset="100%" stop-color="#FF7A18"/>
  </linearGradient>
  <linearGradient id="roseGrad" x1="0" y1="0" x2="1" y2="1">
    <stop offset="0%" stop-color="#FF8AAE"/>
    <stop offset="100%" stop-color="#C026D3"/>
  </linearGradient>
  <linearGradient id="violetGrad" x1="0" y1="0" x2="1" y2="1">
    <stop offset="0%" stop-color="#C084FC"/>
    <stop offset="100%" stop-color="#7C3AED"/>
  </linearGradient>
  <linearGradient id="tealGrad" x1="0" y1="0" x2="1" y2="1">
    <stop offset="0%" stop-color="#7DD3FC"/>
    <stop offset="100%" stop-color="#2563EB"/>
  </linearGradient>
  <filter id="shadow" x="-20%" y="-20%" width="140%" height="140%">
    <feDropShadow dx="0" dy="6" stdDeviation="8" flood-color="#2A163A" flood-opacity="0.12"/>
  </filter>
  <filter id="softShadow" x="-30%" y="-30%" width="160%" height="160%">
    <feDropShadow dx="0" dy="0" stdDeviation="10" flood-color="#FFD36A" flood-opacity="0.18"/>
    <feDropShadow dx="0" dy="3" stdDeviation="4" flood-color="#2A163A" flood-opacity="0.10"/>
  </filter>
  <style>
    text { font-family: "Noto Serif", Georgia, "Times New Roman", serif; }
    .title { font-size: 24px; font-weight: 800; fill: #2A163A; }
    .subtitle { font-size: 13px; font-weight: 500; fill: #7A5E7E; }
    .label { font-size: 13px; font-weight: 700; fill: #2A163A; }
    .small { font-size: 11px; font-weight: 500; fill: #7A5E7E; }
    .tiny { font-size: 10px; font-weight: 600; fill: #7A5E7E; }
    .num { font-size: 13px; font-weight: 800; fill: #2A163A; }
  </style>
</defs>
<rect x="0" y="0" width="100%" height="100%" fill="url(#bgGrad)"/><circle cx="780" cy="60" r="110" fill="#FFFFFF" opacity="0.18"/><circle cx="120" cy="440" r="140" fill="#FFD36A" opacity="0.08"/>
<text class="title" x="450.0" y="34" text-anchor="middle">Meru Prastāra, row 13</text>
<text class="subtitle" x="450.0" y="55" text-anchor="middle">A symmetric mountain of coefficients whose sum is 8,192</text>
<g filter="url(#softShadow)"><rect x="412.0" y="90" width="76" height="34" rx="17" fill="url(#violetGrad)" opacity="0.92"/><text class="num" x="450.0" y="110" text-anchor="middle">1</text></g>
<line x1="450.0" y1="124" x2="340.0" y2="144" stroke="#7A5E7E" stroke-opacity="0.22" stroke-width="2"/>
<line x1="450.0" y1="124" x2="560.0" y2="144" stroke="#7A5E7E" stroke-opacity="0.22" stroke-width="2"/>
<g filter="url(#softShadow)"><rect x="302.0" y="144" width="76" height="34" rx="17" fill="url(#violetGrad)" opacity="0.92"/><text class="num" x="340.0" y="164" text-anchor="middle">13</text></g>
<g filter="url(#softShadow)"><rect x="522.0" y="144" width="76" height="34" rx="17" fill="url(#violetGrad)" opacity="0.92"/><text class="num" x="560.0" y="164" text-anchor="middle">13</text></g>
<line x1="340.0" y1="178" x2="340.0" y2="198" stroke="#7A5E7E" stroke-opacity="0.22" stroke-width="2"/>
<line x1="560.0" y1="178" x2="560.0" y2="198" stroke="#7A5E7E" stroke-opacity="0.22" stroke-width="2"/>
<g filter="url(#softShadow)"><rect x="302.0" y="198" width="76" height="34" rx="17" fill="url(#violetGrad)" opacity="0.92"/><text class="num" x="340.0" y="218" text-anchor="middle">78</text></g>
<g filter="url(#softShadow)"><rect x="522.0" y="198" width="76" height="34" rx="17" fill="url(#violetGrad)" opacity="0.92"/><text class="num" x="560.0" y="218" text-anchor="middle">78</text></g>
<line x1="340.0" y1="232" x2="340.0" y2="252" stroke="#7A5E7E" stroke-opacity="0.22" stroke-width="2"/>
<line x1="560.0" y1="232" x2="560.0" y2="252" stroke="#7A5E7E" stroke-opacity="0.22" stroke-width="2"/>
<g filter="url(#softShadow)"><rect x="302.0" y="252" width="76" height="34" rx="17" fill="url(#violetGrad)" opacity="0.92"/><text class="num" x="340.0" y="272" text-anchor="middle">286</text></g>
<g filter="url(#softShadow)"><rect x="522.0" y="252" width="76" height="34" rx="17" fill="url(#violetGrad)" opacity="0.92"/><text class="num" x="560.0" y="272" text-anchor="middle">286</text></g>
<line x1="340.0" y1="286" x2="340.0" y2="306" stroke="#7A5E7E" stroke-opacity="0.22" stroke-width="2"/>
<line x1="560.0" y1="286" x2="560.0" y2="306" stroke="#7A5E7E" stroke-opacity="0.22" stroke-width="2"/>
<g filter="url(#softShadow)"><rect x="302.0" y="306" width="76" height="34" rx="17" fill="url(#goldGrad)" opacity="0.92"/><text class="num" x="340.0" y="326" text-anchor="middle">715</text></g>
<g filter="url(#softShadow)"><rect x="522.0" y="306" width="76" height="34" rx="17" fill="url(#goldGrad)" opacity="0.92"/><text class="num" x="560.0" y="326" text-anchor="middle">715</text></g>
<line x1="340.0" y1="340" x2="340.0" y2="360" stroke="#7A5E7E" stroke-opacity="0.22" stroke-width="2"/>
<line x1="560.0" y1="340" x2="560.0" y2="360" stroke="#7A5E7E" stroke-opacity="0.22" stroke-width="2"/>
<g filter="url(#softShadow)"><rect x="296.0" y="360" width="88" height="34" rx="17" fill="url(#goldGrad)" opacity="0.92"/><text class="num" x="340.0" y="380" text-anchor="middle">1,287</text></g>
<g filter="url(#softShadow)"><rect x="516.0" y="360" width="88" height="34" rx="17" fill="url(#goldGrad)" opacity="0.92"/><text class="num" x="560.0" y="380" text-anchor="middle">1,287</text></g>
<line x1="340.0" y1="394" x2="340.0" y2="414" stroke="#7A5E7E" stroke-opacity="0.22" stroke-width="2"/>
<line x1="560.0" y1="394" x2="560.0" y2="414" stroke="#7A5E7E" stroke-opacity="0.22" stroke-width="2"/>
<g filter="url(#softShadow)"><rect x="296.0" y="414" width="88" height="34" rx="17" fill="url(#roseGrad)" opacity="0.92"/><text class="num" x="340.0" y="434" text-anchor="middle">1,716</text></g>
<g filter="url(#softShadow)"><rect x="516.0" y="414" width="88" height="34" rx="17" fill="url(#roseGrad)" opacity="0.92"/><text class="num" x="560.0" y="434" text-anchor="middle">1,716</text></g>
<text class="subtitle" x="450.0" y="485" text-anchor="middle">Both sides mirror exactly. The twin 1,716 peaks anchor the traditional summit.</text>
</svg>