<svg xmlns="http://www.w3.org/2000/svg" width="1400" height="720" viewBox="0 0 1400 720" fill="none">
    <defs>
      <style>
        .title { font: 600 24px "Cormorant Garamond", Georgia, serif; fill: #993C1D; }
        .subtitle { font: 500 14px "Cormorant Garamond", Georgia, serif; fill: #6B5D4F; }
        .label { font: 500 14px "Cormorant Garamond", Georgia, serif; fill: #2C2418; }
        .small { font: 500 12px "Cormorant Garamond", Georgia, serif; fill: #6B5D4F; }
        .tiny { font: 500 11px "Cormorant Garamond", Georgia, serif; fill: #9A8E7F; }
        .mono { font: 500 12px "SF Mono","Fira Code",monospace; fill: #2C2418; }
        .monoSmall { font: 500 11px "SF Mono","Fira Code",monospace; fill: #6B5D4F; }
        .dev { font: 500 16px "Noto Sans Devanagari","Devanagari Sangam MN",serif; fill: #2C2418; }
      </style>
      
    </defs>
    <rect width="1400" height="720" rx="22" fill="#FDF8F0"/><text x="70" y="42" class="title">Meru Prastāra through row 15</text><text x="70" y="64" class="subtitle">The essay uses the 15th decision row: 16 entries summing to 2¹⁵ = 32,768.</text><circle cx="700.0" cy="92" r="15" fill="#FAF6EE" stroke="#E0D5C5"/><text x="700.0" y="96" text-anchor="middle" class="small">1</text><circle cx="677.0" cy="122" r="15" fill="#FAF6EE" stroke="#E0D5C5"/><text x="677.0" y="126" text-anchor="middle" class="small">1</text><circle cx="723.0" cy="122" r="15" fill="#FAF6EE" stroke="#E0D5C5"/><text x="723.0" y="126" text-anchor="middle" class="small">1</text><circle cx="654.0" cy="152" r="15" fill="#FAF6EE" stroke="#E0D5C5"/><text x="654.0" y="156" text-anchor="middle" class="small">1</text><circle cx="700.0" cy="152" r="15" fill="#FAF6EE" stroke="#E0D5C5"/><text x="700.0" y="156" text-anchor="middle" class="small">2</text><circle cx="746.0" cy="152" r="15" fill="#FAF6EE" stroke="#E0D5C5"/><text x="746.0" y="156" text-anchor="middle" class="small">1</text><circle cx="631.0" cy="182" r="15" fill="#FAF6EE" stroke="#E0D5C5"/><text x="631.0" y="186" text-anchor="middle" class="small">1</text><circle cx="677.0" cy="182" r="15" fill="#FAF6EE" stroke="#E0D5C5"/><text x="677.0" y="186" text-anchor="middle" class="small">3</text><circle cx="723.0" cy="182" r="15" fill="#FAF6EE" stroke="#E0D5C5"/><text x="723.0" y="186" text-anchor="middle" class="small">3</text><circle cx="769.0" cy="182" r="15" fill="#FAF6EE" stroke="#E0D5C5"/><text x="769.0" y="186" text-anchor="middle" class="small">1</text><circle cx="608.0" cy="212" r="15" fill="#FAF6EE" stroke="#E0D5C5"/><text x="608.0" y="216" text-anchor="middle" class="small">1</text><circle cx="654.0" cy="212" r="15" fill="#FAF6EE" stroke="#E0D5C5"/><text x="654.0" y="216" text-anchor="middle" class="small">4</text><circle cx="700.0" cy="212" r="15" fill="#FAF6EE" stroke="#E0D5C5"/><text x="700.0" y="216" text-anchor="middle" class="small">6</text><circle cx="746.0" cy="212" r="15" fill="#FAF6EE" stroke="#E0D5C5"/><text x="746.0" y="216" text-anchor="middle" class="small">4</text><circle cx="792.0" cy="212" r="15" fill="#FAF6EE" stroke="#E0D5C5"/><text x="792.0" y="216" text-anchor="middle" class="small">1</text><circle cx="585.0" cy="242" r="15" fill="#FAF6EE" stroke="#E0D5C5"/><text x="585.0" y="246" text-anchor="middle" class="small">1</text><circle cx="631.0" cy="242" r="15" fill="#FAF6EE" stroke="#E0D5C5"/><text x="631.0" y="246" text-anchor="middle" class="small">5</text><circle cx="677.0" cy="242" r="15" fill="#FAF6EE" stroke="#E0D5C5"/><text x="677.0" y="246" text-anchor="middle" class="small">10</text><circle cx="723.0" cy="242" r="15" fill="#FAF6EE" stroke="#E0D5C5"/><text x="723.0" y="246" text-anchor="middle" class="small">10</text><circle cx="769.0" cy="242" r="15" fill="#FAF6EE" stroke="#E0D5C5"/><text x="769.0" y="246" text-anchor="middle" class="small">5</text><circle cx="815.0" cy="242" r="15" fill="#FAF6EE" stroke="#E0D5C5"/><text x="815.0" y="246" text-anchor="middle" class="small">1</text><circle cx="562.0" cy="272" r="15" fill="#FAF6EE" stroke="#E0D5C5"/><text x="562.0" y="276" text-anchor="middle" class="small">1</text><circle cx="608.0" cy="272" r="15" fill="#FAF6EE" stroke="#E0D5C5"/><text x="608.0" y="276" text-anchor="middle" class="small">6</text><circle cx="654.0" cy="272" r="15" fill="#FAF6EE" stroke="#E0D5C5"/><text x="654.0" y="276" text-anchor="middle" class="small">15</text><circle cx="700.0" cy="272" r="15" fill="#FAF6EE" stroke="#E0D5C5"/><text x="700.0" y="276" text-anchor="middle" class="small">20</text><circle cx="746.0" cy="272" r="15" fill="#FAF6EE" stroke="#E0D5C5"/><text x="746.0" y="276" text-anchor="middle" class="small">15</text><circle cx="792.0" cy="272" r="15" fill="#FAF6EE" stroke="#E0D5C5"/><text x="792.0" y="276" text-anchor="middle" class="small">6</text><circle cx="838.0" cy="272" r="15" fill="#FAF6EE" stroke="#E0D5C5"/><text x="838.0" y="276" text-anchor="middle" class="small">1</text><circle cx="539.0" cy="302" r="15" fill="#FAF6EE" stroke="#E0D5C5"/><text x="539.0" y="306" text-anchor="middle" class="small">1</text><circle cx="585.0" cy="302" r="15" fill="#FAF6EE" stroke="#E0D5C5"/><text x="585.0" y="306" text-anchor="middle" class="small">7</text><circle cx="631.0" cy="302" r="15" fill="#FAF6EE" stroke="#E0D5C5"/><text x="631.0" y="306" text-anchor="middle" class="small">21</text><circle cx="677.0" cy="302" r="15" fill="#FAF6EE" stroke="#E0D5C5"/><text x="677.0" y="306" text-anchor="middle" class="small">35</text><circle cx="723.0" cy="302" r="15" fill="#FAF6EE" stroke="#E0D5C5"/><text x="723.0" y="306" text-anchor="middle" class="small">35</text><circle cx="769.0" cy="302" r="15" fill="#FAF6EE" stroke="#E0D5C5"/><text x="769.0" y="306" text-anchor="middle" class="small">21</text><circle cx="815.0" cy="302" r="15" fill="#FAF6EE" stroke="#E0D5C5"/><text x="815.0" y="306" text-anchor="middle" class="small">7</text><circle cx="861.0" cy="302" r="15" fill="#FAF6EE" stroke="#E0D5C5"/><text x="861.0" y="306" text-anchor="middle" class="small">1</text><text x="700.0" y="332" text-anchor="middle" class="label">⋮</text><text x="700.0" y="362" text-anchor="middle" class="label">⋮</text><text x="700.0" y="392" text-anchor="middle" class="label">⋮</text><rect x="62.0" y="661.9797979797979" width="56" height="30.02020202020202" rx="12" fill="#FAEEDA" fill-opacity="0.9" stroke="#BA7517" stroke-width="1.5"/><text x="90.0" y="653.9797979797979" text-anchor="middle" class="small">1</text><text x="90.0" y="720" text-anchor="middle" class="tiny">0</text><rect x="143.33333333333331" y="661.6969696969697" width="56" height="30.303030303030305" rx="12" fill="#FAEEDA" fill-opacity="0.9" stroke="#BA7517" stroke-width="1.5"/><text x="171.33333333333331" y="653.6969696969697" text-anchor="middle" class="small">15</text><text x="171.33333333333331" y="720" text-anchor="middle" class="tiny">1</text><rect x="224.66666666666666" y="659.8787878787879" width="56" height="32.121212121212125" rx="12" fill="#FAEEDA" fill-opacity="0.9" stroke="#BA7517" stroke-width="1.5"/><text x="252.66666666666666" y="651.8787878787879" text-anchor="middle" class="small">105</text><text x="252.66666666666666" y="720" text-anchor="middle" class="tiny">2</text><rect x="306.0" y="652.8080808080808" width="56" height="39.19191919191919" rx="12" fill="#FAEEDA" fill-opacity="0.9" stroke="#BA7517" stroke-width="1.5"/><text x="334.0" y="644.8080808080808" text-anchor="middle" class="small">455</text><text x="334.0" y="720" text-anchor="middle" class="tiny">3</text><rect x="387.3333333333333" y="634.4242424242424" width="56" height="57.57575757575758" rx="12" fill="#FAEEDA" fill-opacity="0.9" stroke="#BA7517" stroke-width="1.5"/><text x="415.3333333333333" y="626.4242424242424" text-anchor="middle" class="small">1,365</text><text x="415.3333333333333" y="720" text-anchor="middle" class="tiny">4</text><rect x="468.66666666666663" y="601.3333333333334" width="56" height="90.66666666666666" rx="12" fill="#FAEEDA" fill-opacity="0.9" stroke="#BA7517" stroke-width="1.5"/><text x="496.66666666666663" y="593.3333333333334" text-anchor="middle" class="small">3,003</text><text x="496.66666666666663" y="720" text-anchor="middle" class="tiny">5</text><rect x="550.0" y="560.8888888888889" width="56" height="131.11111111111111" rx="12" fill="#FAEEDA" fill-opacity="0.9" stroke="#BA7517" stroke-width="1.5"/><text x="578.0" y="552.8888888888889" text-anchor="middle" class="small">5,005</text><text x="578.0" y="720" text-anchor="middle" class="tiny">6</text><rect x="631.3333333333333" y="532.0" width="56" height="160.0" rx="12" fill="#D85A30" fill-opacity="0.9" stroke="#993C1D" stroke-width="1.5"/><text x="659.3333333333333" y="524.0" text-anchor="middle" class="small">6,435</text><text x="659.3333333333333" y="720" text-anchor="middle" class="tiny">7</text><rect x="712.6666666666666" y="532.0" width="56" height="160.0" rx="12" fill="#D85A30" fill-opacity="0.9" stroke="#993C1D" stroke-width="1.5"/><text x="740.6666666666666" y="524.0" text-anchor="middle" class="small">6,435</text><text x="740.6666666666666" y="720" text-anchor="middle" class="tiny">8</text><rect x="794.0" y="560.8888888888889" width="56" height="131.11111111111111" rx="12" fill="#FAEEDA" fill-opacity="0.9" stroke="#BA7517" stroke-width="1.5"/><text x="822.0" y="552.8888888888889" text-anchor="middle" class="small">5,005</text><text x="822.0" y="720" text-anchor="middle" class="tiny">9</text><rect x="875.3333333333333" y="601.3333333333334" width="56" height="90.66666666666666" rx="12" fill="#FAEEDA" fill-opacity="0.9" stroke="#BA7517" stroke-width="1.5"/><text x="903.3333333333333" y="593.3333333333334" text-anchor="middle" class="small">3,003</text><text x="903.3333333333333" y="720" text-anchor="middle" class="tiny">10</text><rect x="956.6666666666666" y="634.4242424242424" width="56" height="57.57575757575758" rx="12" fill="#FAEEDA" fill-opacity="0.9" stroke="#BA7517" stroke-width="1.5"/><text x="984.6666666666666" y="626.4242424242424" text-anchor="middle" class="small">1,365</text><text x="984.6666666666666" y="720" text-anchor="middle" class="tiny">11</text><rect x="1038.0" y="652.8080808080808" width="56" height="39.19191919191919" rx="12" fill="#FAEEDA" fill-opacity="0.9" stroke="#BA7517" stroke-width="1.5"/><text x="1066.0" y="644.8080808080808" text-anchor="middle" class="small">455</text><text x="1066.0" y="720" text-anchor="middle" class="tiny">12</text><rect x="1119.3333333333333" y="659.8787878787879" width="56" height="32.121212121212125" rx="12" fill="#FAEEDA" fill-opacity="0.9" stroke="#BA7517" stroke-width="1.5"/><text x="1147.3333333333333" y="651.8787878787879" text-anchor="middle" class="small">105</text><text x="1147.3333333333333" y="720" text-anchor="middle" class="tiny">13</text><rect x="1200.6666666666665" y="661.6969696969697" width="56" height="30.303030303030305" rx="12" fill="#FAEEDA" fill-opacity="0.9" stroke="#BA7517" stroke-width="1.5"/><text x="1228.6666666666665" y="653.6969696969697" text-anchor="middle" class="small">15</text><text x="1228.6666666666665" y="720" text-anchor="middle" class="tiny">14</text><rect x="1282.0" y="661.9797979797979" width="56" height="30.02020202020202" rx="12" fill="#FAEEDA" fill-opacity="0.9" stroke="#BA7517" stroke-width="1.5"/><text x="1310.0" y="653.9797979797979" text-anchor="middle" class="small">1</text><text x="1310.0" y="720" text-anchor="middle" class="tiny">15</text><text x="700.0" y="747" text-anchor="middle" class="small">k cuts (0 → 15)</text><line x1="220" y1="557" x2="1180" y2="557" stroke="#534AB7" stroke-width="2" opacity="0.5"/><text x="700.0" y="554" text-anchor="middle" class="small">perfect bilateral symmetry: C(15,k) = C(15,15−k)</text><rect x="1060" y="500" width="250" height="112" rx="16" fill="#FAF6EE" stroke="#E0D5C5"/><text x="1084" y="536" class="label">Row 15 total</text><text x="1084" y="578" class="title" style="font-size:30px">32,768</text><text x="1084" y="602" class="small">= 2¹⁵ admissible seam choices</text>
    </svg>