<svg xmlns="http://www.w3.org/2000/svg" width="1400" height="420" viewBox="0 0 1400 420" fill="none">
    <defs>
      <style>
        .title { font: 600 24px "Cormorant Garamond", Georgia, serif; fill: #993C1D; }
        .subtitle { font: 500 14px "Cormorant Garamond", Georgia, serif; fill: #6B5D4F; }
        .label { font: 500 14px "Cormorant Garamond", Georgia, serif; fill: #2C2418; }
        .small { font: 500 12px "Cormorant Garamond", Georgia, serif; fill: #6B5D4F; }
        .tiny { font: 500 11px "Cormorant Garamond", Georgia, serif; fill: #9A8E7F; }
        .mono { font: 500 12px "SF Mono","Fira Code",monospace; fill: #2C2418; }
        .monoSmall { font: 500 11px "SF Mono","Fira Code",monospace; fill: #6B5D4F; }
        .dev { font: 500 16px "Noto Sans Devanagari","Devanagari Sangam MN",serif; fill: #2C2418; }
      </style>
      
    </defs>
    <rect x="0" y="0" width="1400" height="420" rx="22" fill="#FDF8F0"/><text x="70" y="42" class="title">Two strings, one 15-seam architecture</text><text x="70" y="64" class="subtitle">Padma Purāṇa is perfectly 2-character periodic; the VS prācalita preserves the same 15 decision points after the initial śrī prefix.</text><text x="70" y="144" class="label">Padma Purāṇa</text><rect x="240" y="110" width="74" height="56" rx="10" fill="#FAEEDA" stroke="#BA7517" stroke-width="1.5"/><text x="277.0" y="145" text-anchor="middle" class="label">rā</text><line x1="316.0" y1="116" x2="316.0" y2="160" stroke="#D85A30" stroke-width="2" stroke-dasharray="3 4"/><circle cx="316.0" cy="100" r="4.5" fill="#D85A30"/><rect x="318" y="110" width="74" height="56" rx="10" fill="#FAF6EE" stroke="#E0D5C5" stroke-width="1.5"/><text x="355.0" y="145" text-anchor="middle" class="label">ma</text><line x1="394.0" y1="116" x2="394.0" y2="160" stroke="#D85A30" stroke-width="2" stroke-dasharray="3 4"/><circle cx="394.0" cy="100" r="4.5" fill="#D85A30"/><rect x="396" y="110" width="74" height="56" rx="10" fill="#FAEEDA" stroke="#BA7517" stroke-width="1.5"/><text x="433.0" y="145" text-anchor="middle" class="label">rā</text><line x1="472.0" y1="116" x2="472.0" y2="160" stroke="#D85A30" stroke-width="2" stroke-dasharray="3 4"/><circle cx="472.0" cy="100" r="4.5" fill="#D85A30"/><rect x="474" y="110" width="74" height="56" rx="10" fill="#FAEEDA" stroke="#BA7517" stroke-width="1.5"/><text x="511.0" y="145" text-anchor="middle" class="label">me</text><line x1="550.0" y1="116" x2="550.0" y2="160" stroke="#D85A30" stroke-width="2" stroke-dasharray="3 4"/><circle cx="550.0" cy="100" r="4.5" fill="#D85A30"/><rect x="552" y="110" width="74" height="56" rx="10" fill="#EEEDFE" stroke="#E0D5C5" stroke-width="1.5"/><text x="589.0" y="145" text-anchor="middle" class="label">ti</text><line x1="628.0" y1="116" x2="628.0" y2="160" stroke="#D85A30" stroke-width="2" stroke-dasharray="3 4"/><circle cx="628.0" cy="100" r="4.5" fill="#D85A30"/><rect x="630" y="110" width="74" height="56" rx="10" fill="#FAEEDA" stroke="#BA7517" stroke-width="1.5"/><text x="667.0" y="145" text-anchor="middle" class="label">rā</text><line x1="706.0" y1="116" x2="706.0" y2="160" stroke="#D85A30" stroke-width="2" stroke-dasharray="3 4"/><circle cx="706.0" cy="100" r="4.5" fill="#D85A30"/><rect x="708" y="110" width="74" height="56" rx="10" fill="#FAEEDA" stroke="#BA7517" stroke-width="1.5"/><text x="745.0" y="145" text-anchor="middle" class="label">me</text><line x1="784.0" y1="116" x2="784.0" y2="160" stroke="#D85A30" stroke-width="2" stroke-dasharray="3 4"/><circle cx="784.0" cy="100" r="4.5" fill="#D85A30"/><rect x="786" y="110" width="74" height="56" rx="10" fill="#EEEDFE" stroke="#E0D5C5" stroke-width="1.5"/><text x="823.0" y="145" text-anchor="middle" class="label">ti</text><line x1="862.0" y1="116" x2="862.0" y2="160" stroke="#D85A30" stroke-width="2" stroke-dasharray="3 4"/><circle cx="862.0" cy="100" r="4.5" fill="#D85A30"/><rect x="864" y="110" width="74" height="56" rx="10" fill="#FAF6EE" stroke="#E0D5C5" stroke-width="1.5"/><text x="901.0" y="145" text-anchor="middle" class="label">ra</text><line x1="940.0" y1="116" x2="940.0" y2="160" stroke="#D85A30" stroke-width="2" stroke-dasharray="3 4"/><circle cx="940.0" cy="100" r="4.5" fill="#D85A30"/><rect x="942" y="110" width="74" height="56" rx="10" fill="#FAEEDA" stroke="#BA7517" stroke-width="1.5"/><text x="979.0" y="145" text-anchor="middle" class="label">me</text><line x1="1018.0" y1="116" x2="1018.0" y2="160" stroke="#D85A30" stroke-width="2" stroke-dasharray="3 4"/><circle cx="1018.0" cy="100" r="4.5" fill="#D85A30"/><rect x="1020" y="110" width="74" height="56" rx="10" fill="#FAEEDA" stroke="#BA7517" stroke-width="1.5"/><text x="1057.0" y="145" text-anchor="middle" class="label">rā</text><line x1="1096.0" y1="116" x2="1096.0" y2="160" stroke="#D85A30" stroke-width="2" stroke-dasharray="3 4"/><circle cx="1096.0" cy="100" r="4.5" fill="#D85A30"/><rect x="1098" y="110" width="74" height="56" rx="10" fill="#FAEEDA" stroke="#BA7517" stroke-width="1.5"/><text x="1135.0" y="145" text-anchor="middle" class="label">me</text><line x1="1174.0" y1="116" x2="1174.0" y2="160" stroke="#D85A30" stroke-width="2" stroke-dasharray="3 4"/><circle cx="1174.0" cy="100" r="4.5" fill="#D85A30"/><rect x="1176" y="110" width="74" height="56" rx="10" fill="#FAF6EE" stroke="#E0D5C5" stroke-width="1.5"/><text x="1213.0" y="145" text-anchor="middle" class="label">ma</text><line x1="1252.0" y1="116" x2="1252.0" y2="160" stroke="#D85A30" stroke-width="2" stroke-dasharray="3 4"/><circle cx="1252.0" cy="100" r="4.5" fill="#D85A30"/><rect x="1254" y="110" width="74" height="56" rx="10" fill="#FAF6EE" stroke="#E0D5C5" stroke-width="1.5"/><text x="1291.0" y="145" text-anchor="middle" class="label">no</text><line x1="1330.0" y1="116" x2="1330.0" y2="160" stroke="#D85A30" stroke-width="2" stroke-dasharray="3 4"/><circle cx="1330.0" cy="100" r="4.5" fill="#D85A30"/><rect x="1332" y="110" width="74" height="56" rx="10" fill="#FAF6EE" stroke="#E0D5C5" stroke-width="1.5"/><text x="1369.0" y="145" text-anchor="middle" class="label">ra</text><line x1="1408.0" y1="116" x2="1408.0" y2="160" stroke="#D85A30" stroke-width="2" stroke-dasharray="3 4"/><circle cx="1408.0" cy="100" r="4.5" fill="#D85A30"/><rect x="1410" y="110" width="74" height="56" rx="10" fill="#FAEEDA" stroke="#BA7517" stroke-width="1.5"/><text x="1447.0" y="145" text-anchor="middle" class="label">me</text><line x1="240" y1="190" x2="1484" y2="190" stroke="#534AB7" stroke-width="2"/><line x1="240" y1="185" x2="240" y2="195" stroke="#534AB7" stroke-width="1.5"/><line x1="318" y1="185" x2="318" y2="195" stroke="#534AB7" stroke-width="1.5"/><line x1="396" y1="185" x2="396" y2="195" stroke="#534AB7" stroke-width="1.5"/><line x1="474" y1="185" x2="474" y2="195" stroke="#534AB7" stroke-width="1.5"/><line x1="552" y1="185" x2="552" y2="195" stroke="#534AB7" stroke-width="1.5"/><line x1="630" y1="185" x2="630" y2="195" stroke="#534AB7" stroke-width="1.5"/><line x1="708" y1="185" x2="708" y2="195" stroke="#534AB7" stroke-width="1.5"/><line x1="786" y1="185" x2="786" y2="195" stroke="#534AB7" stroke-width="1.5"/><line x1="864" y1="185" x2="864" y2="195" stroke="#534AB7" stroke-width="1.5"/><line x1="942" y1="185" x2="942" y2="195" stroke="#534AB7" stroke-width="1.5"/><line x1="1020" y1="185" x2="1020" y2="195" stroke="#534AB7" stroke-width="1.5"/><line x1="1098" y1="185" x2="1098" y2="195" stroke="#534AB7" stroke-width="1.5"/><line x1="1176" y1="185" x2="1176" y2="195" stroke="#534AB7" stroke-width="1.5"/><line x1="1254" y1="185" x2="1254" y2="195" stroke="#534AB7" stroke-width="1.5"/><line x1="1332" y1="185" x2="1332" y2="195" stroke="#534AB7" stroke-width="1.5"/><line x1="1410" y1="185" x2="1410" y2="195" stroke="#534AB7" stroke-width="1.5"/><line x1="1484" y1="185" x2="1484" y2="195" stroke="#534AB7" stroke-width="1.5"/><text x="862.0" y="214" text-anchor="middle" class="small">15 seams; every interval between adjacent seams = 2 characters</text><text x="70" y="289" class="label">VS prācalita</text><rect x="240" y="255" width="88" height="56" rx="10" fill="#EEEDFE" stroke="#E0D5C5" stroke-width="1.5"/><text x="284.0" y="290" text-anchor="middle" class="label">śrī</text><line x1="330.0" y1="261" x2="330.0" y2="305" stroke="#D85A30" stroke-width="2" stroke-dasharray="3 4"/><circle cx="330.0" cy="245" r="4.5" fill="#D85A30"/><rect x="332" y="255" width="74" height="56" rx="10" fill="#FAEEDA" stroke="#BA7517" stroke-width="1.5"/><text x="369.0" y="290" text-anchor="middle" class="label">rā</text><line x1="408.0" y1="261" x2="408.0" y2="305" stroke="#D85A30" stroke-width="2" stroke-dasharray="3 4"/><circle cx="408.0" cy="245" r="4.5" fill="#D85A30"/><rect x="410" y="255" width="74" height="56" rx="10" fill="#FAF6EE" stroke="#E0D5C5" stroke-width="1.5"/><text x="447.0" y="290" text-anchor="middle" class="label">ma</text><line x1="486.0" y1="261" x2="486.0" y2="305" stroke="#D85A30" stroke-width="2" stroke-dasharray="3 4"/><circle cx="486.0" cy="245" r="4.5" fill="#D85A30"/><rect x="488" y="255" width="74" height="56" rx="10" fill="#FAEEDA" stroke="#BA7517" stroke-width="1.5"/><text x="525.0" y="290" text-anchor="middle" class="label">rā</text><line x1="564.0" y1="261" x2="564.0" y2="305" stroke="#D85A30" stroke-width="2" stroke-dasharray="3 4"/><circle cx="564.0" cy="245" r="4.5" fill="#D85A30"/><rect x="566" y="255" width="74" height="56" rx="10" fill="#FAF6EE" stroke="#E0D5C5" stroke-width="1.5"/><text x="603.0" y="290" text-anchor="middle" class="label">ma</text><line x1="642.0" y1="261" x2="642.0" y2="305" stroke="#D85A30" stroke-width="2" stroke-dasharray="3 4"/><circle cx="642.0" cy="245" r="4.5" fill="#D85A30"/><rect x="644" y="255" width="74" height="56" rx="10" fill="#FAEEDA" stroke="#BA7517" stroke-width="1.5"/><text x="681.0" y="290" text-anchor="middle" class="label">rā</text><line x1="720.0" y1="261" x2="720.0" y2="305" stroke="#D85A30" stroke-width="2" stroke-dasharray="3 4"/><circle cx="720.0" cy="245" r="4.5" fill="#D85A30"/><rect x="722" y="255" width="74" height="56" rx="10" fill="#FAEEDA" stroke="#BA7517" stroke-width="1.5"/><text x="759.0" y="290" text-anchor="middle" class="label">me</text><line x1="798.0" y1="261" x2="798.0" y2="305" stroke="#D85A30" stroke-width="2" stroke-dasharray="3 4"/><circle cx="798.0" cy="245" r="4.5" fill="#D85A30"/><rect x="800" y="255" width="74" height="56" rx="10" fill="#EEEDFE" stroke="#E0D5C5" stroke-width="1.5"/><text x="837.0" y="290" text-anchor="middle" class="label">ti</text><line x1="876.0" y1="261" x2="876.0" y2="305" stroke="#D85A30" stroke-width="2" stroke-dasharray="3 4"/><circle cx="876.0" cy="245" r="4.5" fill="#D85A30"/><rect x="878" y="255" width="74" height="56" rx="10" fill="#FAF6EE" stroke="#E0D5C5" stroke-width="1.5"/><text x="915.0" y="290" text-anchor="middle" class="label">ra</text><line x1="954.0" y1="261" x2="954.0" y2="305" stroke="#D85A30" stroke-width="2" stroke-dasharray="3 4"/><circle cx="954.0" cy="245" r="4.5" fill="#D85A30"/><rect x="956" y="255" width="74" height="56" rx="10" fill="#FAEEDA" stroke="#BA7517" stroke-width="1.5"/><text x="993.0" y="290" text-anchor="middle" class="label">me</text><line x1="1032.0" y1="261" x2="1032.0" y2="305" stroke="#D85A30" stroke-width="2" stroke-dasharray="3 4"/><circle cx="1032.0" cy="245" r="4.5" fill="#D85A30"/><rect x="1034" y="255" width="74" height="56" rx="10" fill="#FAEEDA" stroke="#BA7517" stroke-width="1.5"/><text x="1071.0" y="290" text-anchor="middle" class="label">rā</text><line x1="1110.0" y1="261" x2="1110.0" y2="305" stroke="#D85A30" stroke-width="2" stroke-dasharray="3 4"/><circle cx="1110.0" cy="245" r="4.5" fill="#D85A30"/><rect x="1112" y="255" width="74" height="56" rx="10" fill="#FAEEDA" stroke="#BA7517" stroke-width="1.5"/><text x="1149.0" y="290" text-anchor="middle" class="label">me</text><line x1="1188.0" y1="261" x2="1188.0" y2="305" stroke="#D85A30" stroke-width="2" stroke-dasharray="3 4"/><circle cx="1188.0" cy="245" r="4.5" fill="#D85A30"/><rect x="1190" y="255" width="74" height="56" rx="10" fill="#FAF6EE" stroke="#E0D5C5" stroke-width="1.5"/><text x="1227.0" y="290" text-anchor="middle" class="label">ma</text><line x1="1266.0" y1="261" x2="1266.0" y2="305" stroke="#D85A30" stroke-width="2" stroke-dasharray="3 4"/><circle cx="1266.0" cy="245" r="4.5" fill="#D85A30"/><rect x="1268" y="255" width="74" height="56" rx="10" fill="#FAF6EE" stroke="#E0D5C5" stroke-width="1.5"/><text x="1305.0" y="290" text-anchor="middle" class="label">no</text><line x1="1344.0" y1="261" x2="1344.0" y2="305" stroke="#D85A30" stroke-width="2" stroke-dasharray="3 4"/><circle cx="1344.0" cy="245" r="4.5" fill="#D85A30"/><rect x="1346" y="255" width="74" height="56" rx="10" fill="#FAF6EE" stroke="#E0D5C5" stroke-width="1.5"/><text x="1383.0" y="290" text-anchor="middle" class="label">ra</text><line x1="1422.0" y1="261" x2="1422.0" y2="305" stroke="#D85A30" stroke-width="2" stroke-dasharray="3 4"/><circle cx="1422.0" cy="245" r="4.5" fill="#D85A30"/><rect x="1424" y="255" width="74" height="56" rx="10" fill="#FAEEDA" stroke="#BA7517" stroke-width="1.5"/><text x="1461.0" y="290" text-anchor="middle" class="label">me</text><text x="310" y="380" class="small">Initial disruption:</text><rect x="430" y="363" width="64" height="28" rx="8" fill="#EEEDFE" stroke="#534AB7" /><text x="462" y="382" text-anchor="middle" class="label">śrī</text><text x="515" y="382" class="small">adds one 3-character prefix, after which the 2-character cadence resumes.</text>
    </svg>